<?xml version="1.0" encoding="iso-8859-1"?>
<!-- Generator: Adobe Illustrator 19.0.0, SVG Export Plug-In . SVG Version: 6.00 Build 0)  -->
<svg version="1.1" id="Layer_1" xmlns="http://www.w3.org/2000/svg" xmlns:xlink="http://www.w3.org/1999/xlink" x="0px" y="0px"
	 viewBox="0 0 499.997 499.997" style="enable-background:new 0 0 499.997 499.997;" xml:space="preserve">
<g>
	<g>
		<path d="M486.403,31.249L464.295,9.141c-12.188-12.188-32.024-12.188-44.212,0l-19.26,19.26c-3.052-3.052-8-3.052-11.052,0
			c-0.056,0.056-0.092,0.124-0.144,0.176c-0.044,0.044-0.092,0.072-0.132,0.112l-333.4,333.396
			c-0.148,0.148-0.248,0.316-0.384,0.476c-0.14,0.16-0.28,0.32-0.408,0.496c-0.264,0.368-0.492,0.756-0.688,1.164
			c-0.048,0.092-0.116,0.168-0.16,0.264l-30.224,69.252c-0.688,1.56-0.788,3.252-0.428,4.836L6.747,455.629
			c-2.256,2.256-2.916,5.652-1.668,8.584l13.192,31.028c1.02,2.392,3.156,4.12,5.708,4.616c0.496,0.096,0.992,0.14,1.488,0.14
			c2.056,0,4.048-0.808,5.524-2.288l25.96-25.96c0.572,0.128,1.144,0.212,1.728,0.212c1.06,0,2.116-0.212,3.124-0.652l69.256-30.224
			c0.172-0.076,0.32-0.192,0.492-0.276c0.256-0.136,0.524-0.264,0.772-0.432c0.26-0.184,0.492-0.392,0.728-0.596
			c0.132-0.116,0.28-1.072,0.408-1.2l0.136-1.008c0,0,0.004,0,0.008,0l333.248-332.384c0.052-0.044,0.084,0.324,0.128,0.276
			c0.048-0.044,0.104,0.132,0.156,0.088c3.052-3.052,3.052-7.888,0.004-10.94l19.252-19.204
			C498.591,63.221,498.591,43.445,486.403,31.249z"/>
	</g>
</g>
<g>
</g>
<g>
</g>
<g>
</g>
<g>
</g>
<g>
</g>
<g>
</g>
<g>
</g>
<g>
</g>
<g>
</g>
<g>
</g>
<g>
</g>
<g>
</g>
<g>
</g>
<g>
</g>
<g>
</g>
</svg>
